# xmcd
#
# Track frame offsets:
#	150
#	12612
#	25433
#	35417
#	46813
#	57578
#	67779
#	79483
#	92347
#	104356
#	116796
#	133186
#	144776
#	156123
#	168916
#	181264
#	193875
#	207046
#	218094
#	228634
#	237656
#	247649
#	259666
#	273917
#	285225
#	294592
#	305193
#	317669
#	329624
#	343659
#
# Disc length: 4723
#
# Revision: 1
# Processed by: cddbd v1.5.1PL0 Copyright (c) Steve Scherf et al.
# Submitted via: EasyCDDAExtractor 4.6.0.1
# Normalized: r0:TDELIM( - )
#
DISCID=bb12711e
DTITLE=Various Artist - A Million Dollars Worth Of Doo-Wop  Vol 5
DYEAR=1900
DGENRE=blues
TTITLE0=Fortunes - Running Away From Love
TTITLE1=Danny (Sly) Stewart and group - A Long Time Alone
TTITLE2=Gothics - Marilyn
TTITLE3=Fabulous Uptowns - A New Love I Have Found
TTITLE4=Pharo-Tones - Give Me A Chance
TTITLE5=Delmiras - Dry Your Eyes
TTITLE6=Uniques - Silvery Moon
TTITLE7=Fabulous Valients - Your Golden Teardrops
TTITLE8=Ramblers - Bye Bye Bye
TTITLE9=Ivoleers - A Lover's Quarrel
TTITLE10=Escos - I'm Lonesome For You
TTITLE11=Czars Of Rhythm - You Show Me The Way
TTITLE12=Montels - That's Alright With Me
TTITLE13=Chancellors - My Thoughts Of You
TTITLE14=Tip Tops (Tiny Tip and the) - I Said A Prayer
TTITLE15=Gold-Tones - If I Had The Wings Of An Angel
TTITLE16=Tommy Williams and group - Here I Stand
TTITLE17=Casual Crescendos - Wish That You Were Here
TTITLE18=Unforgetables - Oh Wishing Well
TTITLE19=Ripples - Please Let Me Love You
TTITLE20=Epics - I Want You To Be My Girl
TTITLE21=Wonders - Please Don't Cry
TTITLE22=Cheerios - Ding Dong Honeymoon
TTITLE23=Trophies - Desire
TTITLE24=Euniques - Cry, Cry, Cry
TTITLE25=Teardrops - Let's Dance
TTITLE26=Del-Rios - Heavenly Angel
TTITLE27=Ernie Farmer and group - Things To Remember
TTITLE28=Marvels - For Sentimental Reasons
TTITLE29=Ban-Lons - I Like It
EXTD=
EXTT0=
EXTT1=
EXTT2=
EXTT3=
EXTT4=
EXTT5=
EXTT6=
EXTT7=
EXTT8=
EXTT9=
EXTT10=
EXTT11=
EXTT12=
EXTT13=
EXTT14=
EXTT15=
EXTT16=
EXTT17=
EXTT18=
EXTT19=
EXTT20=
EXTT21=
EXTT22=
EXTT23=
EXTT24=
EXTT25=
EXTT26=
EXTT27=
EXTT28=
EXTT29=
PLAYORDER=
